# xmcd
#
# Track frame offsets: 
#        150
#        13243
#        26525
#        40162
#        55244
#        68971
#        82863
#        94638
#        107510
#        125714
#        141532
#        153931
#        169372
#        186527
#        203331
#        224541
#
# Disc length: 3293 seconds
#
# Revision: 0
# Processed by: cddbd v1.5.2PL0 Copyright (c) Steve Scherf et al.
# Submitted via: ExactAudioCopy v0.95a5
#
DISCID=e30cdb10
DTITLE=S³awek Wierzcholski and Nocna Zmiana Bluesa - Nieznany tytu³
DYEAR=2006
DGENRE=Blues
TTITLE0=Naprzod Marsz
TTITLE1=Piosenka B. Optymistyczna
TTITLE2=Co Tylko Chcesz
TTITLE3=Piatek Wieczorem
TTITLE4=Milosc ZVLO
TTITLE5=Wciaz Nie Wiem Nicv
TTITLE6=Nocne Rozmyslania
TTITLE7=Czarno Bialy Film
TTITLE8=Nieznajomy Przyjaciel
TTITLE9=Wlasnie Ten Dzien
TTITLE10=Dmuchawiec
TTITLE11=Usmiech Przez Sen
TTITLE12=Nie Pytaj Ktora Godzina
TTITLE13=My Dwaj
TTITLE14=Zawsze Wygra Blues
TTITLE15=Data
EXTD=
EXTT0=
EXTT1=
EXTT2=
EXTT3=
EXTT4=
EXTT5=
EXTT6=
EXTT7=
EXTT8=
EXTT9=
EXTT10=
EXTT11=
EXTT12=
EXTT13=
EXTT14=
EXTT15=
PLAYORDER=
